# xmcd
#
# Track frame offsets:
#	150
#	14347
#	34562
#	52925
#	69671
#	88646
#	106981
#	128408
#	144792
#	167696
#	185627
#	203376
#	218659
#	236490
#	254158
#	270124
#	285324
#	301011
#	314874
#
# Disc length: 4447 seconds
#
# Revision: 1
# Processed by: cddbd v1.5.1PL2 Copyright (c) Steve Scherf et al.
# Submitted via: audiograbber 1.82.01
#
DISCID=f9115d13
DTITLE=Аллегрова Ирина - Новая звёздная серия
DYEAR=2001
DGENRE=Pop
TTITLE0=Без вины виновата я
TTITLE1=Качели
TTITLE2=Транзитный пассажир
TTITLE3=Александрит от Александра
TTITLE4=Старый знакомый
TTITLE5=Её высочество
TTITLE6=Незаконченный роман
TTITLE7=Гарем
TTITLE8=Мама
TTITLE9=Двадцать три
TTITLE10=Свечка
TTITLE11=Сударь
TTITLE12=Обними меня
TTITLE13=Угонщица
TTITLE14=Столик на двоих
TTITLE15=Бабы стервы
TTITLE16=Не первый
TTITLE17=Странник
TTITLE18=Ой не надо
EXTD=
EXTT0=
EXTT1=
EXTT2=
EXTT3=
EXTT4=
EXTT5=
EXTT6=
EXTT7=
EXTT8=
EXTT9=
EXTT10=
EXTT11=
EXTT12=
EXTT13=
EXTT14=
EXTT15=
EXTT16=
EXTT17=
EXTT18=
PLAYORDER=
